<svg xmlns="http://www.w3.org/2000/svg" viewBox="0 0 100 100" width="100" height="100">
  <rect width="100" height="100" rx="22" fill="#0D1117"/>
  <!-- Official Maya Continuous 3D Loop 'm' -->
  <path d="M22 68 L22 36 C22 28.5 28 23 35.5 23 C42 23 47 27 49 32.5 C51 27 56 23 62.5 23 C70.5 23 76.5 29 76.5 37.5 L76.5 68 L64 68 L64 40 C64 36 61.5 33.5 58 33.5 C54 33.5 51.5 36.5 51.5 40.5 L51.5 68 L39 68 L39 40 C39 36 36.5 33.5 33 33.5 C29.5 33.5 27 36 27 40.5 L27 68 Z" fill="#00D632"/>
  <circle cx="82" cy="62" r="5" fill="#00D632"/>
</svg>